<?xml version="1.0" encoding="iso-8859-1"?>
<!-- Generator: Adobe Illustrator 16.0.0, SVG Export Plug-In . SVG Version: 6.00 Build 0)  -->
<!DOCTYPE svg PUBLIC "-//W3C//DTD SVG 1.1//EN" "http://www.w3.org/Graphics/SVG/1.1/DTD/svg11.dtd">
<svg version="1.1" id="Capa_1" xmlns="http://www.w3.org/2000/svg" xmlns:xlink="http://www.w3.org/1999/xlink" x="0px" y="0px"
	 width="30.527px" height="30.527px" viewBox="0 0 30.527 30.527" style="enable-background:new 0 0 30.527 30.527;"
	 xml:space="preserve">
<g>
	<path d="M26.306,30.527H4.222V0h22.084V30.527z M5.511,29.238h19.505V1.289H5.511V29.238z"/>
	<rect x="8.574" y="15.654" width="14.024" height="1.317"/>
	<rect x="8.574" y="18.716" width="14.024" height="1.32"/>
	<rect x="8.574" y="21.78" width="14.024" height="1.317"/>
	<rect x="8.574" y="24.602" width="14.024" height="1.318"/>
	<path d="M17.215,2.64c-1.023,0-2.596,0.496-2.838,0.708c-0.242,0.213-0.166,0.701,0.284,0.491s1.633-0.633,2.554-0.633
		c3.034,0,5.504,2.469,5.504,5.504c0,3.033-2.47,4.937-5.504,4.937s-5.503-1.903-5.503-4.937c0-0.963,0.506-2.463,0.686-2.654
		c0.179-0.194-0.276-0.682-0.456-0.341c-0.18,0.342-0.797,1.905-0.797,2.995c0,3.347,2.724,5.504,6.07,5.504
		c3.348,0,6.071-2.157,6.071-5.504C23.286,5.361,20.562,2.64,17.215,2.64z"/>
	<g>
		<path d="M16.08,7.807c-0.008-0.046-0.025-0.108-0.048-0.187c-0.022-0.08-0.063-0.158-0.122-0.236
			c-0.058-0.075-0.137-0.145-0.233-0.202c-0.098-0.06-0.225-0.089-0.378-0.089c-0.177,0-0.325,0.037-0.442,0.116
			c-0.117,0.076-0.211,0.179-0.283,0.306c-0.069,0.127-0.121,0.27-0.151,0.429c-0.032,0.158-0.048,0.319-0.048,0.482
			c0,0.163,0.016,0.323,0.048,0.482c0.03,0.159,0.082,0.302,0.151,0.429c0.072,0.127,0.166,0.229,0.283,0.305
			c0.117,0.078,0.266,0.116,0.442,0.116c0.127,0,0.235-0.019,0.322-0.061c0.089-0.041,0.164-0.097,0.225-0.169
			c0.062-0.074,0.112-0.159,0.15-0.26c0.038-0.1,0.068-0.205,0.092-0.32h1.47c0,0.246-0.051,0.488-0.146,0.728
			c-0.099,0.241-0.24,0.458-0.428,0.651c-0.188,0.192-0.422,0.346-0.697,0.465c-0.277,0.117-0.592,0.178-0.946,0.178
			c-0.394,0-0.742-0.066-1.047-0.197c-0.303-0.133-0.561-0.311-0.771-0.537c-0.21-0.228-0.371-0.496-0.479-0.808
			c-0.111-0.31-0.166-0.644-0.166-1.002c0-0.381,0.058-0.729,0.173-1.042c0.116-0.312,0.282-0.578,0.496-0.801
			c0.216-0.222,0.474-0.396,0.776-0.517c0.302-0.123,0.64-0.185,1.016-0.185c0.671,0.005,1.188,0.175,1.555,0.508
			c0.365,0.332,0.578,0.805,0.644,1.417L16.08,7.807L16.08,7.807z"/>
		<path d="M18.12,8.615h1.197V7.419h1.039v1.196h1.196v1.041h-1.196v1.197h-1.039V9.656H18.12V8.615z"/>
	</g>
</g>
<g>
</g>
<g>
</g>
<g>
</g>
<g>
</g>
<g>
</g>
<g>
</g>
<g>
</g>
<g>
</g>
<g>
</g>
<g>
</g>
<g>
</g>
<g>
</g>
<g>
</g>
<g>
</g>
<g>
</g>
</svg>
